<svg xmlns="http://www.w3.org/2000/svg" width="64" height="64" enable-background="new 0 0 64 64" viewBox="0 0 64 64"><rect width="4" height="6" x="29.994" y="26.5" fill="#AAB2BD"/><path fill="#CCD1D9" d="M38,27.5H26c-6.617,0-12-5.383-12-12c0-0.553,0.447-1,1-1s1,0.447,1,1c0,5.514,4.486,10,10,10h12
			c5.514,0,10-4.486,10-10c0-0.553,0.447-1,1-1s1,0.447,1,1C50,22.117,44.617,27.5,38,27.5z"/><path fill="#CCD1D9" d="M15 16.5c-.553 0-1-.447-1-1v-3c0-.553.447-1 1-1s1 .447 1 1v3C16 16.053 15.553 16.5 15 16.5zM49 16.5c-.553 0-1-.447-1-1v-3c0-.553.447-1 1-1s1 .447 1 1v3C50 16.053 49.553 16.5 49 16.5z"/><path fill="#E6E9ED" d="M40.994,32.5h-7h-4h-6.988c-5.531,0-9.99,4.459-10,9.99v0.01v19h37.988v-19v-0.01
		C50.984,36.959,46.525,32.5,40.994,32.5z"/><path fill="#656D78" d="M13.006 42.5v19h-.012c0 1.1-.889 2-1.988 2-1.111 0-2-.9-2-2v-19-.01c0-1.102.889-2 1.988-2 1.111 0 2 .898 2 2h.012V42.5zM52.994 40.49c1.102 0 2 .898 2 2v.01 19c0 1.1-.898 2-2 2-1.109 0-2-.9-2-2v-19-.01C50.994 41.389 51.885 40.49 52.994 40.49z"/><polygon fill="#FFF" points="40.994 53.5 40.994 56.5 22.994 56.5 22.994 45.5 40.994 45.5 40.994 48.5"/><path fill="#CCD1D9" d="M14.994,12.5c0,6.07,4.932,11,11,11h12c6.08,0,11-4.93,11-11v3c0,6.07-4.92,11-11,11h-4h-4h-4
		c-6.068,0-11-4.93-11-11V12.5z"/><path fill="#5D9CEC" d="M48.994,12.5c0,6.07-4.92,11-11,11h-12c-6.068,0-11-4.93-11-11s4.932-11,11-11h12
		C44.074,1.5,48.994,6.43,48.994,12.5z"/><path fill="#E6E9ED" d="M38,24.5H26c-6.617,0-12-5.383-12-12s5.383-12,12-12h12c6.617,0,12,5.383,12,12S44.617,24.5,38,24.5z
			 M26,2.5c-5.514,0-10,4.486-10,10s4.486,10,10,10h12c5.514,0,10-4.486,10-10s-4.486-10-10-10H26z"/><path fill="#4A89DC" d="M29.001 12.5c-.553 0-1-.447-1-1 0-1.104-.897-2-2.001-2s-2.001.896-2.001 2c0 .553-.447 1-1 1s-1-.447-1-1c0-2.205 1.795-4 4.001-4s4.001 1.795 4.001 4C30.001 12.053 29.554 12.5 29.001 12.5zM41.001 12.5c-.553 0-1-.447-1-1 0-1.104-.897-2-2.001-2s-2.001.896-2.001 2c0 .553-.447 1-1 1s-1-.447-1-1c0-2.205 1.795-4 4.001-4s4.001 1.795 4.001 4C42.001 12.053 41.554 12.5 41.001 12.5zM34 18.5h-5c-.553 0-1-.447-1-1s.447-1 1-1h5c.553 0 1 .447 1 1S34.553 18.5 34 18.5zM40.999 42.496h-18c-.553 0-1-.447-1-1V38.5c0-.553.447-1 1-1h18c.553 0 1 .447 1 1v2.996C41.999 42.049 41.552 42.496 40.999 42.496zM23.999 40.496h16V39.5h-16V40.496z"/><path fill="#FFF" d="M41,57.5H23c-0.553,0-1-0.447-1-1v-11c0-0.553,0.447-1,1-1h18c0.553,0,1,0.447,1,1v11
			C42,57.053,41.553,57.5,41,57.5z M24,55.5h16v-9H24V55.5z"/><path fill="#FFF" d="M42 49.5h-1c-.553 0-1-.447-1-1s.447-1 1-1h1c.553 0 1 .447 1 1S42.553 49.5 42 49.5zM42 54.5h-1c-.553 0-1-.447-1-1s.447-1 1-1h1c.553 0 1 .447 1 1S42.553 54.5 42 54.5z"/><path fill="#E6E9ED" d="M26.025,51.502c-0.553,0-1.005-0.447-1.005-1s0.442-1,0.994-1h0.011c0.552,0,1,0.447,1,1
			S26.577,51.502,26.025,51.502z"/><path fill="#CCD1D9" d="M18.03 47.502c-.553 0-1.005-.447-1.005-1s.442-1 .994-1h.011c.552 0 1 .447 1 1S18.582 47.502 18.03 47.502zM18.03 53.5c-.553 0-1.005-.447-1.005-1s.442-1 .994-1h.011c.552 0 1 .447 1 1S18.582 53.5 18.03 53.5zM18.03 50.5c-.553 0-1.005-.447-1.005-1s.442-1 .994-1h.011c.552 0 1 .447 1 1S18.582 50.5 18.03 50.5zM18.03 56.502c-.553 0-1.005-.447-1.005-1s.442-1 .994-1h.011c.552 0 1 .447 1 1S18.582 56.502 18.03 56.502zM46.029 47.502c-.553 0-1.005-.447-1.005-1s.442-1 .994-1h.011c.552 0 1 .447 1 1S46.581 47.502 46.029 47.502zM46.029 53.5c-.553 0-1.005-.447-1.005-1s.442-1 .994-1h.011c.552 0 1 .447 1 1S46.581 53.5 46.029 53.5zM46.029 50.5c-.553 0-1.005-.447-1.005-1s.442-1 .994-1h.011c.552 0 1 .447 1 1S46.581 50.5 46.029 50.5zM46.029 56.502c-.553 0-1.005-.447-1.005-1s.442-1 .994-1h.011c.552 0 1 .447 1 1S46.581 56.502 46.029 56.502z"/><rect width="3" height="3" x="22.994" y="38.5" fill="#5D9CEC"/><rect width="3" height="3" x="34.994" y="38.5" fill="#5D9CEC"/><rect width="3" height="3" x="37.994" y="38.5" fill="#5D9CEC"/><rect width="3" height="3" x="25.994" y="38.5" fill="#5D9CEC"/><rect width="3" height="3" x="31.994" y="38.5" fill="#5D9CEC"/><rect width="3" height="3" x="28.994" y="38.5" fill="#5D9CEC"/></svg>